<?xml version="1.0" standalone="no"?>
<!DOCTYPE svg PUBLIC "-//W3C//DTD SVG 20010904//EN"
 "http://www.w3.org/TR/2001/REC-SVG-20010904/DTD/svg10.dtd">
<svg version="1.0" xmlns="http://www.w3.org/2000/svg"
 width="120px" height="39px" viewBox="0 0 824.000000 540.000000"
 preserveAspectRatio="xMidYMid meet">
<metadata>
Created by potrace 1.16, written by Peter Selinger 2001-2019
</metadata>
<g transform="translate(0.000000,540.000000) scale(0.100000,-0.100000)"
fill="#000000" stroke="none">
<path d="M1713 3687 c-65 -95 -55 -182 29 -266 64 -65 222 -120 343 -121 41
-1 56 -6 83 -30 17 -16 32 -32 32 -35 0 -3 -12 -5 -28 -5 -44 0 -171 -38 -248
-75 -331 -159 -448 -509 -235 -708 60 -56 111 -83 208 -108 93 -23 235 -25
318 -4 130 34 259 134 333 258 77 129 111 308 78 420 -43 148 -171 194 -330
119 -160 -76 -277 -258 -277 -434 0 -58 5 -80 28 -126 28 -55 55 -83 69 -69 4
4 0 15 -9 25 -30 33 -57 106 -57 157 0 197 164 406 351 446 68 15 124 -6 158
-59 33 -50 41 -186 16 -282 -54 -210 -220 -389 -398 -430 -72 -16 -199 -12
-268 10 -124 38 -189 121 -197 250 -8 144 46 269 173 395 115 116 245 179 389
191 94 8 102 10 86 29 -7 8 -23 15 -35 15 -22 0 -75 34 -75 49 0 4 28 13 62
20 177 36 348 150 399 266 47 106 -59 159 -241 121 -200 -42 -354 -187 -354
-332 l0 -52 -41 5 c-134 15 -228 50 -294 109 -84 76 -101 159 -46 234 22 30
25 50 7 50 -4 0 -17 -15 -29 -33z m955 -13 c86 -60 -89 -241 -298 -308 -130
-42 -130 -42 -130 -2 0 119 129 277 260 317 46 14 144 10 168 -7z"/>
<path d="M2969 3473 c-46 -116 -198 -553 -230 -658 -42 -141 -46 -178 -25
-228 19 -46 61 -71 121 -71 65 -1 100 24 164 115 l49 69 6 -38 c15 -93 86
-146 196 -146 95 0 171 46 251 153 l25 34 2 -44 c4 -58 31 -110 69 -130 l31
-15 -56 -49 c-177 -156 -86 -360 117 -259 82 41 161 154 201 291 12 37 17 42
58 53 71 18 142 58 194 112 l48 49 0 -38 c1 -86 65 -163 136 -163 39 0 111 46
148 95 l30 39 14 -35 c19 -46 48 -76 89 -90 68 -22 133 9 194 95 34 46 35 46
9 -29 -11 -32 -20 -62 -20 -67 0 -5 26 -8 57 -6 l56 3 68 202 c73 221 108 291
179 365 55 57 98 65 126 23 16 -24 14 -33 -45 -223 -34 -108 -61 -215 -61
-237 0 -98 104 -165 189 -121 32 17 99 88 126 134 22 37 35 41 35 12 0 -32 37
-96 67 -118 107 -74 227 -50 336 67 31 34 57 66 57 72 0 5 5 9 10 9 6 0 10
-11 10 -25 0 -37 35 -100 67 -123 66 -47 165 -52 243 -12 73 37 162 144 204
243 25 60 -5 45 -39 -20 -38 -73 -129 -171 -180 -194 -22 -10 -60 -19 -83 -19
-37 0 -50 6 -78 34 -32 32 -34 38 -34 105 0 64 2 71 20 71 45 0 132 43 179 89
140 136 138 322 -3 321 -122 -1 -219 -114 -277 -327 -25 -89 -53 -139 -118
-206 -58 -61 -108 -87 -165 -87 -91 0 -132 72 -115 199 17 120 113 333 167
368 30 21 68 19 92 -2 24 -22 27 -89 6 -138 -17 -43 -70 -87 -95 -80 -24 6
-35 -11 -16 -27 37 -31 130 48 151 129 28 111 -32 184 -138 167 -57 -9 -90
-29 -137 -82 -50 -57 -83 -125 -111 -230 -47 -170 -143 -304 -221 -304 -66 0
-65 52 11 286 33 102 60 195 60 205 0 46 -29 90 -72 109 -80 36 -128 22 -197
-56 l-41 -47 20 58 c11 32 20 60 20 62 0 1 -24 3 -54 3 l-54 0 -57 -167 c-70
-202 -133 -328 -200 -400 -40 -42 -57 -53 -82 -53 -40 0 -58 23 -56 71 2 36
80 276 152 467 l31 83 -56 -3 -56 -3 -20 -54 -21 -54 -13 39 c-8 21 -14 40
-14 41 0 1 -14 10 -32 19 -36 19 -100 14 -149 -12 -91 -47 -179 -169 -225
-312 -22 -69 -36 -94 -81 -142 -32 -35 -76 -70 -106 -84 -64 -31 -107 -42
-107 -28 0 6 43 136 95 289 52 154 95 285 95 292 0 8 -16 11 -52 9 -51 -3 -52
-3 -66 -46 l-14 -43 -17 33 c-30 62 -92 73 -178 34 -97 -46 -175 -148 -228
-300 -36 -102 -70 -158 -137 -223 -81 -79 -172 -96 -230 -44 -31 28 -33 33
-33 101 l0 72 57 18 c31 9 72 27 91 39 82 50 151 167 151 255 0 42 -4 52 -32
77 -76 68 -208 14 -281 -114 -28 -51 -71 -168 -86 -236 -10 -49 -71 -148 -121
-198 -35 -34 -50 -43 -79 -43 -51 0 -63 30 -46 113 11 59 183 580 249 755 l31
82 -55 0 c-50 0 -55 -2 -65 -27z m435 -348 c24 -24 28 -51 15 -97 -16 -61 -35
-94 -82 -146 -41 -43 -124 -92 -159 -92 -15 0 -14 10 13 88 31 86 77 183 101
212 20 25 61 50 80 50 9 0 23 -7 32 -15z m518 -13 c18 -21 15 -122 -6 -202
-25 -94 -110 -262 -160 -313 -50 -52 -78 -62 -108 -38 -61 50 15 348 127 500
53 73 113 94 147 53z m667 -8 c59 -129 -131 -554 -247 -554 -21 0 -35 7 -42
19 -35 66 21 295 106 437 44 74 71 103 108 119 37 16 61 9 75 -21z m1763 19
c43 -39 14 -150 -63 -236 -38 -44 -126 -97 -160 -97 -17 0 -17 3 -3 53 9 28
38 98 65 155 37 77 58 108 82 122 39 24 55 25 79 3z m-2593 -682 c-39 -115
-84 -191 -130 -215 -31 -17 -38 -17 -64 -5 -78 38 -34 180 79 257 46 31 92 49
128 51 14 1 13 -10 -13 -88z"/>
<path d="M2422 2029 c-63 -13 -102 -71 -102 -151 0 -92 69 -164 148 -155 98
11 149 120 106 227 -26 64 -82 94 -152 79z m70 -28 c65 -51 62 -235 -4 -260
-61 -22 -118 48 -118 147 0 113 56 165 122 113z"/>
<path d="M3106 2030 c-62 -19 -96 -73 -96 -152 0 -96 65 -163 150 -155 34 4
51 12 72 36 29 32 35 51 18 51 -5 0 -10 -5 -10 -10 0 -23 -50 -60 -79 -60 -45
0 -60 9 -81 51 -37 71 -21 205 25 223 40 15 69 5 107 -36 39 -43 47 -37 27 21
-9 26 -16 31 -44 31 -18 0 -39 2 -47 4 -7 2 -26 0 -42 -4z"/>
<path d="M3904 2029 c-40 -11 -55 -30 -56 -69 -1 -38 30 -73 94 -106 79 -40
79 -106 1 -112 -34 -3 -44 1 -61 22 -26 34 -44 33 -40 -1 2 -22 9 -28 28 -30
14 0 41 -4 61 -8 46 -9 92 14 108 54 19 45 -2 77 -79 120 -53 30 -66 42 -68
65 -2 15 2 34 9 42 19 23 65 17 87 -11 26 -32 32 -32 32 3 0 26 -3 29 -35 30
-20 1 -39 3 -43 5 -4 2 -21 0 -38 -4z"/>
<path d="M4135 2033 c-28 -7 -52 -30 -59 -58 -11 -43 10 -72 79 -112 69 -40
85 -65 65 -102 -16 -31 -79 -29 -110 4 -30 32 -40 32 -40 -4 0 -24 4 -28 28
-29 15 0 39 -3 54 -7 62 -16 118 22 118 80 0 42 -24 69 -84 95 -42 18 -76 52
-76 77 0 20 30 43 56 43 14 0 36 -11 50 -25 32 -32 34 -31 34 5 0 27 -3 30
-34 30 -19 0 -40 2 -48 4 -7 2 -22 1 -33 -1z"/>
<path d="M5042 2029 c-63 -13 -102 -71 -102 -151 0 -92 69 -164 148 -155 98
11 149 120 106 227 -26 64 -82 94 -152 79z m60 -20 c71 -38 76 -242 6 -268
-61 -22 -118 48 -118 147 0 106 46 156 112 121z"/>
<path d="M5344 2029 c-73 -21 -115 -108 -93 -195 22 -85 96 -130 173 -104 101
33 125 195 40 270 -19 16 -41 30 -49 30 -7 0 -19 2 -27 4 -7 2 -27 0 -44 -5z
m76 -29 c31 -31 41 -67 41 -139 0 -47 -5 -71 -18 -89 -39 -53 -94 -45 -125 18
-27 52 -25 169 3 204 25 32 70 35 99 6z"/>
<path d="M5890 2026 c-22 -7 -40 -22 -49 -40 -21 -45 3 -85 78 -125 65 -34 82
-62 61 -100 -16 -31 -79 -29 -110 4 -31 33 -40 32 -40 -5 0 -26 4 -30 23 -28
12 1 39 -2 61 -6 77 -17 139 43 112 108 -8 19 -33 41 -76 65 -53 30 -66 42
-68 65 -7 57 49 76 94 31 31 -32 34 -31 34 3 0 26 -3 29 -35 30 -20 1 -39 3
-43 6 -4 2 -23 -1 -42 -8z"/>
<path d="M2075 2020 c3 -5 13 -10 21 -10 11 0 14 -24 14 -130 0 -126 -1 -131
-22 -140 -17 -6 -6 -9 42 -8 36 0 57 2 48 5 -15 4 -18 16 -18 69 l0 64 40 0
c27 0 42 -6 49 -17 8 -14 10 -8 10 27 0 35 -2 41 -10 28 -7 -12 -22 -18 -49
-18 l-40 0 0 60 0 60 44 0 c35 0 48 -5 60 -22 19 -27 31 -18 22 17 -6 25 -7
25 -112 25 -68 0 -103 -4 -99 -10z"/>
<path d="M2620 2021 c0 -5 7 -11 15 -15 12 -4 15 -29 15 -131 0 -121 -1 -126
-22 -135 -17 -6 -6 -9 42 -8 36 0 57 2 48 5 -14 4 -18 15 -18 59 0 30 3 54 8
53 4 0 24 -23 45 -50 37 -49 100 -90 114 -75 4 4 0 12 -10 17 -10 6 -36 33
-58 61 l-40 52 28 14 c46 24 63 43 63 74 0 44 -16 66 -58 78 -45 12 -172 13
-172 1z"/>
<path d="M3290 2020 c0 -5 7 -10 15 -10 13 0 15 -21 15 -130 0 -112 -2 -130
-17 -139 -13 -8 11 -10 88 -11 l107 0 6 32 c6 32 -3 55 -12 29 -11 -31 -43
-51 -82 -51 l-40 0 0 135 c0 113 2 135 15 135 8 0 15 5 15 10 0 6 -25 10 -55
10 -30 0 -55 -4 -55 -10z"/>
<path d="M3649 2003 c-6 -16 -26 -71 -44 -123 -45 -131 -45 -131 -69 -140 -15
-6 -6 -9 34 -9 44 0 50 2 31 10 -15 6 -21 14 -17 25 3 9 9 27 12 40 6 22 11
24 60 24 53 0 54 -1 69 -37 15 -35 15 -39 -1 -50 -15 -11 -8 -13 47 -13 57 0
61 2 40 13 -18 9 -35 44 -75 150 -29 79 -56 137 -64 137 -7 0 -17 -12 -23 -27z"/>
<path d="M4285 2020 c3 -5 12 -10 19 -10 7 0 31 -35 54 -77 36 -64 42 -85 42
-134 0 -46 -3 -58 -17 -62 -10 -3 11 -5 47 -5 48 -1 59 2 43 8 -20 8 -23 17
-23 62 0 43 8 68 41 131 22 42 46 77 54 77 8 0 17 5 20 10 4 6 -14 10 -47 10
-49 -1 -51 -2 -34 -15 19 -15 19 -16 -9 -76 -33 -68 -34 -68 -80 22 -22 41
-22 46 -7 56 14 10 4 12 -46 12 -40 1 -61 -3 -57 -9z"/>
<path d="M4708 2013 c21 -15 22 -22 22 -140 0 -119 -1 -124 -22 -133 -16 -6
12 -8 87 -7 l109 2 7 33 c7 37 -5 42 -22 10 -17 -32 -28 -38 -76 -38 l-43 0 0
129 c0 122 1 129 23 144 21 15 19 16 -43 16 -62 0 -64 -1 -42 -16z"/>
<path d="M5540 2020 c0 -5 7 -10 15 -10 13 0 15 -21 15 -130 0 -112 -2 -130
-17 -139 -14 -8 -4 -10 42 -10 46 0 56 2 43 10 -13 7 -18 23 -18 58 0 26 3 51
6 54 4 4 28 -22 55 -57 35 -47 57 -66 79 -71 31 -7 57 3 32 12 -7 3 -40 39
-73 80 l-59 75 51 59 c28 33 57 59 64 59 8 0 17 5 20 10 4 6 -14 10 -47 10
-48 -1 -51 -2 -34 -15 22 -17 26 -10 -56 -102 l-38 -43 0 70 c0 56 3 70 15 70
8 0 15 5 15 10 0 6 -25 10 -55 10 -30 0 -55 -4 -55 -10z"/>
</g>
</svg>
